<svg width="60" height="60" viewBox="0 0 60 60" fill="none" xmlns="http://www.w3.org/2000/svg">
<path fill-rule="evenodd" clip-rule="evenodd" d="M0 30V60H30H60V30V0H30H0V30ZM25 3.267C25 3.414 20.05 8.469 14 14.5L3 25.466V14.233V3H14C20.05 3 25 3.12 25 3.267ZM30 13.5C18.725 19.216 9.058 23.917 8.518 23.947C7.978 23.976 12.245 19.275 18 13.5L28.464 3L39.482 3.053L50.5 3.107L30 13.5ZM56.68 28.654C56.47 28.864 45.093 28.915 31.399 28.768L6.5 28.5L31.5 15.869L56.5 3.239L56.781 15.755C56.935 22.639 56.89 28.443 56.68 28.654ZM57 44.004V57.008L32 44.5C18.25 37.621 7 31.769 7 31.496C7 31.223 18.25 31 32 31H57V44.004ZM14.5 46L25.466 57H14.233H3V46C3 39.95 3.12 35 3.267 35C3.414 35 8.469 39.95 14.5 46ZM30 46.5L50.5 56.893L39.482 56.947L28.464 57L18 46.5C12.245 40.725 7.978 36.024 8.518 36.053C9.058 36.083 18.725 40.784 30 46.5Z" fill="#537EE7"/>
</svg>
